<svg width="183" height="65" viewBox="0 0 183 65" fill="none" xmlns="http://www.w3.org/2000/svg">
<path d="M2 50.5931V14.4069H10.0413L22.0727 35.9097L34.0737 14.4069H42.115V50.5931H34.0737V29.7046L24.7532 46.7226H19.3619L10.0413 29.7046V50.5931H2Z" fill="url(#paint0_linear_20_23)"/>
<path d="M33.9214 50.5931V14.4069H42.054V28.5066H57.5883V14.4069H65.6905V50.5931H57.5883V36.0633H42.054V50.5931H33.9214Z" fill="url(#paint1_linear_20_23)"/>
<path d="M173.364 50.7774H75.3766C71.5996 50.7774 68.5232 47.6749 68.5232 43.8658V21.1035C68.5232 17.2944 71.5996 14.1919 75.3766 14.1919H173.364C177.141 14.1919 180.218 17.2944 180.218 21.1035V43.8965C180.218 47.7056 177.141 50.7774 173.364 50.7774Z" fill="url(#paint2_linear_20_23)"/>
<path d="M92.2206 43.5586C90.6063 43.5586 89.0833 43.2821 87.6822 42.7599C86.281 42.2377 85.0931 41.4698 84.0575 40.456C83.0219 39.4731 82.2299 38.3058 81.6512 36.9542C81.0725 35.6333 80.7983 34.1588 80.7983 32.5614C80.7983 30.9641 81.0725 29.4896 81.6512 28.1687C82.2299 26.8478 83.0219 25.6805 84.0575 24.6668C85.0931 23.6838 86.3115 22.9159 87.7126 22.3629C89.1137 21.8407 90.6063 21.5643 92.2511 21.5643C94.0786 21.5643 95.7234 21.8715 97.2159 22.5165C98.7085 23.1616 99.9573 24.0832 100.962 25.3119L97.7947 28.2609C97.0941 27.4315 96.3022 26.8171 95.3884 26.3871C94.5051 25.957 93.5304 25.742 92.4947 25.742C91.52 25.742 90.6063 25.8956 89.7839 26.2335C88.9615 26.5714 88.2609 27.0321 87.6517 27.6465C87.0425 28.2609 86.5856 28.9674 86.2506 29.7968C85.9155 30.6262 85.7632 31.5477 85.7632 32.5614C85.7632 33.5751 85.9155 34.4967 86.2506 35.3261C86.5856 36.1555 87.0425 36.862 87.6517 37.4764C88.2609 38.0907 88.9615 38.5515 89.7839 38.8894C90.6063 39.2273 91.52 39.3809 92.4947 39.3809C93.5304 39.3809 94.5051 39.1659 95.3884 38.7358C96.2717 38.3058 97.0637 37.6607 97.7947 36.8313L100.962 39.7495C99.9573 40.9783 98.7085 41.9305 97.2159 42.5756C95.7234 43.2207 94.0786 43.5586 92.2206 43.5586Z" fill="white"/>
<path d="M107.603 43.19H102.699V21.9329H107.603V43.19ZM117.502 34.466H107.207V30.319H117.502V34.466ZM117.136 21.9329H122.01V43.19H117.136V21.9329Z" fill="white"/>
<path d="M130.356 39.2273H141.839V43.1593H125.513V21.9329H141.443V25.8648H130.356V39.2273ZM129.99 30.4726H140.133V34.3431H129.99V30.4726Z" fill="white"/>
<path d="M144.215 43.19V21.9329H148.235L157.221 36.9234H155.058L163.861 21.9329H167.912V43.19H163.374L163.313 28.9981H164.227L157.13 40.9168H154.937L147.748 28.9981H148.753V43.19H144.215Z" fill="white"/>
<defs>
<linearGradient id="paint0_linear_20_23" x1="32.5695" y1="22.3337" x2="18.4104" y2="35.776" gradientUnits="userSpaceOnUse">
<stop stop-color="#076F94"/>
<stop offset="1" stop-color="#24BCCE"/>
</linearGradient>
<linearGradient id="paint1_linear_20_23" x1="-8.44084" y1="59.3716" x2="66.6841" y2="25.267" gradientUnits="userSpaceOnUse">
<stop stop-color="#076F94"/>
<stop offset="1" stop-color="#24BCCE"/>
</linearGradient>
<linearGradient id="paint2_linear_20_23" x1="68.1727" y1="42.3579" x2="180.657" y2="22.9741" gradientUnits="userSpaceOnUse">
<stop stop-color="#076F94"/>
<stop offset="1" stop-color="#24BCCE"/>
</linearGradient>
</defs>
</svg>
